<svg xmlns="http://www.w3.org/2000/svg" viewBox="0 0 1200 700">
<defs><linearGradient id="d" x1="0" x2="1"><stop stop-color="#101620"/><stop offset="1" stop-color="#18241e"/></linearGradient></defs><rect width="1200" height="700" rx="28" fill="url(#d)"/>
<text x="60" y="76" fill="#fff" font-family="Arial,sans-serif" font-size="30" font-weight="700">OCR 기반 Dobot 자동 분류</text><text x="60" y="110" fill="#a7b6c5" font-family="Arial,sans-serif" font-size="17">문자 인식 → 조건 판단 → 로봇 팔 동작</text>
<g transform="translate(90 180)"><rect x="0" y="300" width="165" height="90" rx="20" fill="#2a3443"/><circle cx="82" cy="298" r="54" fill="#394759"/><rect x="70" y="112" width="32" height="190" rx="16" fill="#e4e9ef" transform="rotate(-16 86 300)"/><circle cx="124" cy="145" r="35" fill="#f1f4f7"/><rect x="120" y="128" width="230" height="28" rx="14" fill="#e8edf2" transform="rotate(20 120 128)"/><circle cx="338" cy="205" r="31" fill="#e9eef4"/><rect x="336" y="190" width="105" height="24" rx="10" fill="#e7edf3" transform="rotate(12 336 190)"/><path d="M430 220 l70 20 l-12 32 l-70 -20z" fill="#333e4d"/><path d="M490 240 l40 -15 l15 16 l-36 22z" fill="#3c4858"/></g>
<g font-family="Arial,sans-serif"><rect x="665" y="210" width="205" height="95" rx="16" fill="#f3f4f6"/><text x="735" y="266" fill="#222" font-size="32" font-weight="700">PASS</text><rect x="900" y="210" width="220" height="95" rx="16" fill="#f3f4f6"/><text x="947" y="266" fill="#222" font-size="30" font-weight="700">DESTROY</text>
<rect x="690" y="355" width="70" height="70" rx="12" fill="#54d27b"/><rect x="790" y="355" width="70" height="70" rx="12" fill="#54d27b"/><rect x="930" y="355" width="70" height="70" rx="12" fill="#ef5f5f"/><rect x="1030" y="355" width="70" height="70" rx="12" fill="#ef5f5f"/>
<path d="M785 306 v42" stroke="#6f8097" stroke-width="5" marker-end="url(#m)"/><path d="M1010 306 v42" stroke="#6f8097" stroke-width="5"/></g>
<g transform="translate(70 570)" font-family="Arial,sans-serif" text-anchor="middle"><rect width="210" height="56" rx="17" fill="#18263a"/><text x="105" y="35" fill="#86b9ff" font-size="18" font-weight="700">① OCR 인식</text><text x="245" y="36" fill="#667b94" font-size="28">→</text><rect x="285" width="250" height="56" rx="17" fill="#1f2734"/><text x="410" y="35" fill="#fff" font-size="18" font-weight="700">② 조건 분기</text><text x="570" y="36" fill="#667b94" font-size="28">→</text><rect x="610" width="290" height="56" rx="17" fill="#193027"/><text x="755" y="35" fill="#74dfa1" font-size="18" font-weight="700">③ Dobot 동작</text></g>
</svg>