<svg xmlns="http://www.w3.org/2000/svg" viewBox="0 0 1200 700">
<defs><linearGradient id="bg" x1="0" x2="1"><stop stop-color="#101522"/><stop offset="1" stop-color="#171229"/></linearGradient><linearGradient id="line" x1="0" x2="1"><stop stop-color="#42d7ff"/><stop offset="1" stop-color="#9b7cff"/></linearGradient></defs>
<rect width="1200" height="700" rx="28" fill="url(#bg)"/><text x="60" y="76" fill="#fff" font-family="Arial,sans-serif" font-size="30" font-weight="700">IoT 온도 모니터링 데이터 파이프라인</text><text x="60" y="110" fill="#a7b2c6" font-family="Arial,sans-serif" font-size="17">센서 수집 → MQTT → Node-RED → InfluxDB → Grafana</text>
<g font-family="Arial,sans-serif" font-weight="700" text-anchor="middle">
<rect x="60" y="190" width="180" height="110" rx="22" fill="#15253c" stroke="#4a8cff"/><text x="150" y="235" fill="#7cb1ff" font-size="22">ESP32</text><text x="150" y="268" fill="#dbe8f7" font-size="16">BME280 Sensor</text>
<text x="275" y="250" fill="#61758f" font-size="30">→</text>
<rect x="310" y="190" width="180" height="110" rx="22" fill="#24183a" stroke="#8a63ff"/><text x="400" y="245" fill="#b695ff" font-size="24">MQTT</text>
<text x="525" y="250" fill="#61758f" font-size="30">→</text>
<rect x="560" y="190" width="180" height="110" rx="22" fill="#3a2218" stroke="#f29c4b"/><text x="650" y="245" fill="#ffc071" font-size="23">Node-RED</text>
<text x="775" y="250" fill="#61758f" font-size="30">→</text>
<rect x="810" y="190" width="180" height="110" rx="22" fill="#182b33" stroke="#54cce8"/><text x="900" y="245" fill="#66d8ee" font-size="22">InfluxDB</text>
<text x="1025" y="250" fill="#61758f" font-size="30">→</text>
<rect x="1060" y="190" width="100" height="110" rx="22" fill="#332015" stroke="#ff9a41"/><text x="1110" y="245" fill="#ffb272" font-size="17">Grafana</text>
</g>
<rect x="60" y="365" width="1100" height="250" rx="22" fill="#0b101b" stroke="#29364a"/>
<text x="88" y="405" fill="#91a3bc" font-family="Arial,sans-serif" font-size="16">실시간 온도 추이</text>
<g stroke="#263448" stroke-width="1"><line x1="90" y1="445" x2="1120" y2="445"/><line x1="90" y1="500" x2="1120" y2="500"/><line x1="90" y1="555" x2="1120" y2="555"/></g>
<path d="M90 530 C160 500 210 510 270 470 S390 430 460 480 S570 550 640 535 S740 470 810 500 S920 455 990 470 S1070 430 1120 450" fill="none" stroke="url(#line)" stroke-width="6" stroke-linecap="round"/>
<circle cx="810" cy="500" r="9" fill="#9a7cff"/><rect x="825" y="474" width="120" height="38" rx="12" fill="#1d2535"/><text x="845" y="499" fill="#fff" font-family="Arial,sans-serif" font-size="16">23.4 °C</text>
</svg>