<svg xmlns="http://www.w3.org/2000/svg" viewBox="0 0 1200 700">
<defs><linearGradient id="g" x1="0" x2="1"><stop stop-color="#101827"/><stop offset="1" stop-color="#0b2b2e"/></linearGradient><linearGradient id="a" x1="0" x2="1"><stop stop-color="#54d6c8"/><stop offset="1" stop-color="#7ba7ff"/></linearGradient></defs>
<rect width="1200" height="700" rx="28" fill="url(#g)"/>
<text x="64" y="72" fill="#fff" font-family="Arial,sans-serif" font-size="30" font-weight="700">YOLOv8 실시간 재활용품 판독</text>
<text x="64" y="108" fill="#9db0c9" font-family="Arial,sans-serif" font-size="17">Webcam → OpenCV → Flask → YOLOv8n → Web UI / CSV</text>
<rect x="64" y="155" width="650" height="410" rx="22" fill="#09111d" stroke="#26364c" stroke-width="2"/>
<circle cx="375" cy="340" r="85" fill="#c9e4f7" opacity=".9"/><rect x="330" y="238" width="90" height="210" rx="26" fill="#dff3ff"/><rect x="341" y="298" width="68" height="52" rx="8" fill="#7ba7ff" opacity=".7"/>
<rect x="286" y="205" width="178" height="280" rx="8" fill="none" stroke="#55e0c4" stroke-width="5"/>
<rect x="286" y="175" width="130" height="36" rx="8" fill="#55e0c4"/><text x="302" y="200" fill="#05231f" font-family="Arial,sans-serif" font-size="20" font-weight="700">glass 0.74</text>
<rect x="88" y="510" width="110" height="34" rx="17" fill="#17243a"/><text x="111" y="533" fill="#b7c7dc" font-family="Arial,sans-serif" font-size="15">Bounding Box</text>
<rect x="215" y="510" width="120" height="34" rx="17" fill="#17243a"/><text x="242" y="533" fill="#b7c7dc" font-family="Arial,sans-serif" font-size="15">Class Label</text>
<rect x="352" y="510" width="130" height="34" rx="17" fill="#17243a"/><text x="373" y="533" fill="#b7c7dc" font-family="Arial,sans-serif" font-size="15">Confidence</text>
<g transform="translate(760 165)"><text x="0" y="0" fill="#cfe8ff" font-family="Arial,sans-serif" font-size="18" font-weight="700">누적 분류 데이터</text>
<path d="M10 260 C70 200 105 225 150 170 S250 130 320 70" fill="none" stroke="url(#a)" stroke-width="8" stroke-linecap="round"/>
<line x1="10" y1="290" x2="340" y2="290" stroke="#33445d"/><line x1="10" y1="55" x2="10" y2="290" stroke="#33445d"/>
<circle cx="320" cy="70" r="9" fill="#7ba7ff"/><rect x="0" y="335" width="350" height="75" rx="16" fill="#121f31"/><text x="22" y="365" fill="#8fa7c4" font-family="Arial,sans-serif" font-size="16">탐지 결과</text><text x="22" y="397" fill="#fff" font-family="Arial,sans-serif" font-size="23" font-weight="700">CSV 저장 + 웹 시각화</text></g>
<g transform="translate(65 610)"><rect width="170" height="46" rx="14" fill="#17243a"/><text x="52" y="30" fill="#fff" font-family="Arial,sans-serif" font-size="17">OpenCV</text><text x="189" y="30" fill="#6f86a4" font-size="24">→</text><rect x="225" width="170" height="46" rx="14" fill="#17243a"/><text x="282" y="30" fill="#fff" font-family="Arial,sans-serif" font-size="17">Flask</text><text x="414" y="30" fill="#6f86a4" font-size="24">→</text><rect x="450" width="190" height="46" rx="14" fill="#17312f"/><text x="497" y="30" fill="#6ff0d7" font-family="Arial,sans-serif" font-size="17" font-weight="700">YOLOv8n</text></g>
</svg>